<?xml version="1.0" standalone="no"?>
<!DOCTYPE svg PUBLIC "-//W3C//DTD SVG 20010904//EN"
 "http://www.w3.org/TR/2001/REC-SVG-20010904/DTD/svg10.dtd">
<svg version="1.0" xmlns="http://www.w3.org/2000/svg"
 width="512.000000pt" height="512.000000pt" viewBox="0 0 512.000000 512.000000"
 preserveAspectRatio="xMidYMid meet">

<g transform="translate(0.000000,512.000000) scale(0.100000,-0.100000)"
fill="#111827" stroke="none">
<path d="M2525 4888 c-3 -13 -6 -69 -8 -125 l-2 -102 -209 119 c-115 66 -216
120 -224 120 -23 0 -121 -59 -132 -80 -6 -12 -11 -344 -13 -912 l-2 -893 21
-40 c12 -22 33 -51 47 -65 14 -14 587 -349 1273 -745 687 -396 1304 -753 1373
-792 68 -40 135 -73 149 -73 33 0 119 49 130 75 6 13 11 371 13 911 l3 889
-29 54 c-16 29 -43 64 -60 76 -39 29 -506 298 -510 293 -2 -2 -5 -50 -6 -108
l-3 -105 210 -121 209 -121 2 -149 c2 -82 -1 -464 -5 -849 l-7 -701 -1326 766
c-729 421 -1336 772 -1348 780 l-23 15 1 845 c1 464 3 846 5 847 2 2 107 -56
234 -129 l232 -133 0 -95 c1 -371 156 -851 398 -1240 137 -220 370 -504 434
-531 42 -17 216 -17 288 0 212 51 379 216 461 455 50 144 59 237 59 604 l0
334 -33 31 c-18 18 -71 59 -117 92 -186 133 -393 358 -563 611 -51 76 -99 142
-108 147 -11 7 -34 3 -80 -16 -181 -71 -375 -58 -615 43 -54 22 -101 40 -105
40 -5 0 -11 -10 -14 -22z m264 -265 c169 -56 338 -68 476 -33 44 11 82 17 85
13 4 -5 38 -53 77 -108 140 -198 355 -427 511 -543 l63 -47 -5 -280 c-3 -207
-8 -298 -20 -348 -76 -327 -274 -506 -558 -507 l-87 0 -62 72 c-297 345 -489
742 -565 1168 -24 135 -27 654 -4 644 8 -3 48 -17 89 -31z"/>
<path d="M1477 2538 l-498 -291 48 -27 c26 -15 611 -353 1298 -750 688 -397
1255 -723 1260 -723 12 0 1005 576 1005 583 0 9 -2587 1500 -2602 1499 -7 0
-237 -131 -511 -291z m628 152 c92 -53 92 -54 51 -79 -20 -11 -51 -30 -69 -40
l-32 -20 -83 49 -83 48 68 40 c37 22 71 41 74 41 4 1 37 -17 74 -39z m-130
-136 c63 -37 115 -70 115 -73 0 -5 -97 -63 -131 -79 -5 -2 -158 82 -227 125
-24 15 -24 15 40 53 34 21 69 39 76 39 7 1 64 -29 127 -65z m366 0 l80 -46
-67 -39 c-36 -22 -71 -39 -76 -39 -15 0 -158 80 -158 88 0 7 119 79 133 81 4
1 44 -20 88 -45z m-489 -140 c101 -59 187 -110 191 -114 5 -4 -23 -26 -62 -48
l-71 -41 -184 107 c-101 59 -184 112 -183 117 0 7 109 82 124 85 1 0 84 -48
185 -106z m704 16 c38 -22 69 -45 69 -51 0 -6 -29 -27 -65 -47 l-65 -35 -77
44 c-43 24 -77 46 -77 49 -1 7 122 79 135 80 7 0 43 -18 80 -40z m-291 -44
l55 -33 -71 -41 -71 -42 -62 35 c-110 62 -109 56 -31 103 77 46 65 47 180 -22z
m-694 -22 l80 -46 -72 -42 -72 -43 -79 45 c-43 24 -78 47 -78 51 0 6 119 78
133 80 4 1 44 -20 88 -45z m1218 -68 l74 -44 -39 -25 c-99 -62 -97 -62 -167
-23 -108 61 -107 56 -35 98 35 20 70 37 78 37 8 1 48 -19 89 -43z m-328 -22
c44 -26 79 -48 77 -49 -2 -2 -34 -21 -71 -43 l-68 -40 -80 45 c-53 30 -77 49
-70 56 9 9 122 76 129 77 2 0 39 -21 83 -46z m-788 -180 c16 -9 8 -16 -53 -52
-61 -35 -75 -40 -94 -30 -11 6 -99 56 -194 111 l-173 100 72 42 72 42 176
-102 c97 -56 184 -106 194 -111z m106 150 c101 -56 99 -52 25 -95 -36 -22 -70
-39 -75 -39 -12 0 -158 83 -158 90 -1 6 121 79 133 80 5 0 39 -16 75 -36z
m410 -25 c39 -22 73 -44 76 -49 5 -8 -114 -80 -133 -80 -5 0 -44 20 -87 44
l-77 44 69 41 c37 22 71 40 75 41 3 0 38 -18 77 -41z m834 -59 c31 -17 55 -36
52 -40 -3 -5 -34 -24 -69 -44 l-64 -36 -81 46 c-45 26 -80 48 -79 49 2 2 34
22 73 44 61 36 71 39 90 27 11 -7 46 -28 78 -46z m-347 -11 c40 -22 76 -44 78
-48 6 -9 -117 -81 -136 -81 -7 1 -46 20 -87 44 -73 44 -73 44 -50 59 43 26
114 67 118 67 2 0 37 -18 77 -41z m-657 -43 l74 -44 -39 -24 c-100 -63 -98
-63 -167 -24 -108 61 -107 56 -35 98 35 20 70 37 78 37 8 0 48 -19 89 -43z
m397 -18 c41 -23 73 -46 71 -51 -1 -5 -32 -25 -68 -45 l-65 -35 -77 43 c-42
24 -77 47 -77 50 0 7 122 80 134 80 4 0 42 -19 82 -42z m828 -56 c58 -34 58
-35 37 -51 -11 -9 -42 -28 -69 -43 l-48 -27 -83 48 -83 48 73 41 c81 45 70 46
173 -16z m-339 -14 c41 -24 75 -45 75 -48 0 -3 -30 -23 -67 -44 l-67 -39 -50
26 c-28 15 -66 36 -85 48 l-34 21 69 39 c38 21 73 39 77 39 4 0 41 -19 82 -42z
m-749 -204 c225 -129 413 -239 417 -244 9 -8 -107 -83 -129 -83 -10 0 -810
457 -827 473 -6 6 115 89 129 90 1 0 186 -106 410 -236z m97 156 c31 -17 55
-36 52 -40 -3 -5 -34 -25 -70 -45 l-64 -36 -81 47 c-44 26 -79 48 -78 50 2 1
34 20 73 43 62 35 72 39 90 27 11 -7 46 -28 78 -46z m386 -11 c39 -22 71 -44
71 -48 0 -4 -30 -24 -66 -45 l-65 -39 -47 27 c-26 15 -62 34 -79 43 -18 9 -33
20 -33 24 0 9 120 78 137 79 6 0 43 -18 82 -41z m812 -45 l81 -47 -73 -42 -72
-42 -79 45 c-43 24 -78 47 -78 51 0 6 119 78 133 80 4 1 44 -20 88 -45z m-251
-74 c0 -4 -102 -65 -132 -78 -4 -2 -43 18 -88 43 l-81 47 73 43 72 42 78 -46
c43 -25 78 -48 78 -51z m-726 2 c58 -34 58 -35 37 -51 -11 -9 -42 -28 -69 -43
l-48 -27 -83 48 -83 48 73 41 c81 45 70 46 173 -16z m449 -48 c17 -11 12 -16
-52 -54 l-71 -41 -63 35 c-111 63 -110 57 -31 103 l69 40 65 -35 c36 -19 73
-41 83 -48z m736 0 c101 -56 99 -52 25 -95 -36 -22 -70 -39 -75 -39 -12 0
-159 83 -159 90 0 6 121 78 134 79 5 1 39 -15 75 -35z m-256 -65 l28 -17 -71
-41 -72 -41 -74 40 c-40 23 -76 45 -79 50 -3 5 25 27 62 49 l68 39 55 -31 c30
-17 68 -38 83 -48z m-722 -6 l80 -46 -72 -42 -72 -42 -79 45 c-43 24 -78 47
-78 51 1 6 119 78 133 80 4 1 44 -20 88 -46z m399 -19 c44 -25 80 -47 80 -49
0 -1 -31 -21 -69 -44 l-69 -41 -77 44 c-42 24 -76 47 -77 51 0 6 114 80 130
84 2 1 39 -20 82 -45z m815 -46 c41 -24 75 -45 75 -48 0 -3 -32 -22 -70 -43
l-70 -38 -68 37 c-102 56 -101 52 -30 95 35 21 69 38 76 39 7 0 46 -19 87 -42z
m-321 -27 c43 -24 74 -47 69 -51 -4 -4 -37 -23 -73 -43 l-65 -35 -72 42 c-40
23 -75 45 -78 48 -7 6 126 90 135 85 3 -1 41 -22 84 -46z m-670 -37 l79 -46
-67 -39 c-37 -21 -72 -39 -77 -39 -12 0 -159 83 -159 90 0 7 122 78 135 79 6
1 46 -20 89 -45z m392 -15 c40 -22 76 -44 79 -49 3 -4 -26 -26 -64 -48 l-69
-40 -81 48 -82 47 68 41 c37 23 70 41 72 42 2 0 37 -18 77 -41z m889 -100 c-3
-5 -35 -25 -70 -44 l-64 -36 -81 47 c-45 25 -80 48 -78 49 2 2 34 21 71 43
l69 39 79 -44 c43 -25 76 -49 74 -54z m-219 -75 c140 -80 256 -149 258 -153 7
-10 -122 -83 -138 -79 -35 8 -514 294 -506 302 9 9 122 75 129 76 2 0 118 -66
257 -146z m-1223 71 c26 -15 47 -30 47 -34 0 -8 -121 -76 -135 -76 -5 0 -45
20 -87 44 l-78 45 73 42 72 42 30 -18 c17 -9 51 -30 78 -45z m782 -27 c41 -24
73 -47 72 -52 -2 -5 -32 -25 -68 -44 l-65 -36 -77 43 c-42 23 -77 46 -77 50 0
7 119 80 133 81 4 0 41 -19 82 -42z m814 -48 c83 -48 83 -47 -9 -98 l-56 -31
-79 45 c-44 25 -81 46 -82 48 -4 4 140 85 146 82 3 -2 39 -22 80 -46z m-1402
-36 c43 -25 79 -47 81 -49 1 -1 -30 -21 -69 -43 l-71 -42 -80 47 c-44 25 -76
49 -71 53 6 7 124 78 130 80 1 0 37 -21 80 -46z m477 -76 c-3 -4 -34 -24 -69
-43 l-64 -36 -81 47 c-45 25 -80 48 -78 49 2 2 34 21 72 43 l69 40 78 -46 c43
-25 76 -49 73 -54z m436 -29 c96 -55 181 -104 189 -109 10 -5 -7 -20 -58 -50
l-71 -42 -153 88 c-83 48 -169 97 -189 108 -21 12 -38 23 -38 26 0 8 122 80
135 80 6 0 89 -45 185 -101z m-688 -25 c43 -26 76 -49 73 -52 -3 -4 -36 -23
-72 -43 l-65 -37 -77 45 c-42 25 -77 47 -79 48 -3 3 129 85 137 85 2 0 40 -21
83 -46z m213 -124 c38 -21 72 -43 76 -47 9 -9 -107 -83 -128 -83 -6 0 -45 20
-88 44 -76 44 -77 44 -54 59 54 33 114 67 120 67 4 0 37 -18 74 -40z m418 -29
c43 -23 77 -44 75 -46 -9 -8 -318 -185 -324 -185 -12 0 -154 84 -154 91 0 8
312 190 320 186 3 -1 40 -22 83 -46z"/>
<path d="M180 1793 c0 -49 4 -63 23 -80 26 -23 2697 -1566 2750 -1588 44 -18
119 -19 167 -1 47 17 1620 932 1644 956 14 14 21 37 24 82 l4 63 -23 -21 c-13
-12 -385 -232 -827 -488 -561 -326 -817 -470 -852 -478 -38 -9 -62 -9 -100 0
-35 8 -251 127 -703 388 -358 208 -971 561 -1362 787 -390 225 -718 416 -727
425 -17 14 -18 11 -18 -45z"/>
</g>
</svg>
