<?xml version="1.0" standalone="no"?>
<!DOCTYPE svg PUBLIC "-//W3C//DTD SVG 20010904//EN"
 "http://www.w3.org/TR/2001/REC-SVG-20010904/DTD/svg10.dtd">
<svg version="1.0" xmlns="http://www.w3.org/2000/svg"
 width="512.000000pt" height="512.000000pt" viewBox="0 0 512.000000 512.000000"
 preserveAspectRatio="xMidYMid meet">

<g transform="translate(0.000000,512.000000) scale(0.100000,-0.100000)"
fill="#000000" stroke="none">
<path d="M2422 4736 c-181 -44 -363 -200 -476 -406 -46 -86 -101 -252 -122
-370 -26 -151 -16 -391 23 -535 17 -60 40 -134 51 -162 19 -46 20 -53 6 -53
-33 0 -170 -53 -235 -90 -79 -46 -164 -122 -213 -188 -109 -150 -303 -508
-381 -704 -75 -191 -98 -292 -99 -438 -1 -112 1 -130 22 -172 49 -99 197 -197
397 -262 71 -23 83 -30 100 -62 26 -49 100 -112 145 -124 146 -39 224 144 144
337 -52 123 -163 206 -244 183 -28 -8 -30 -7 -39 28 -39 143 -71 373 -71 502
0 112 4 115 147 124 322 19 619 129 883 325 45 33 90 61 100 61 9 0 48 -23 86
-51 38 -28 88 -63 111 -77 23 -15 42 -30 43 -33 0 -4 -65 -70 -144 -147 l-145
-140 105 -248 c58 -137 107 -259 110 -270 4 -17 -31 -61 -171 -213 l-176 -191
23 -60 c15 -41 28 -60 40 -60 16 0 16 4 3 48 -8 26 -15 50 -15 53 0 3 96 90
214 192 l214 187 -75 256 c-41 141 -73 257 -71 258 2 2 63 49 136 104 72 56
140 107 150 113 14 9 37 5 107 -19 129 -44 257 -71 403 -83 144 -12 169 -19
181 -52 13 -34 -5 -250 -34 -407 -37 -202 -34 -195 -82 -197 -131 -5 -246
-162 -247 -338 0 -87 12 -121 59 -165 21 -20 37 -25 76 -24 63 1 119 38 173
116 35 51 44 58 105 78 189 62 349 171 386 263 42 103 27 287 -39 491 -87 265
-339 731 -473 876 -92 99 -254 193 -374 215 l-36 7 38 111 c50 147 69 261 69
416 0 495 -253 904 -615 996 -71 18 -200 18 -273 1z m364 -787 c44 -6 86 -14
93 -19 22 -13 4 -27 -41 -32 -61 -8 -146 -42 -217 -88 l-62 -40 -32 24 c-67
50 -183 96 -279 111 -55 9 -47 21 25 35 140 28 338 31 513 9z m-602 -51 c3
-13 6 -59 6 -103 1 -44 6 -96 13 -115 11 -32 19 -37 92 -63 90 -32 140 -32
218 -2 46 19 48 19 95 0 77 -30 127 -30 217 2 96 34 105 47 105 159 0 45 3 96
6 113 6 26 10 31 28 25 26 -7 146 -62 146 -66 0 -2 -9 -26 -19 -53 -10 -28
-22 -72 -26 -99 -8 -51 -40 -96 -69 -96 -11 0 -15 -22 -18 -109 -4 -127 -8
-136 -108 -217 -58 -47 -65 -58 -80 -113 -28 -101 -87 -159 -182 -180 -129
-29 -264 64 -284 196 -5 37 -15 49 -78 101 -94 77 -106 103 -106 231 0 84 -2
99 -15 95 -25 -10 -63 39 -70 92 -4 27 -16 72 -26 99 -11 28 -19 51 -19 52 0
8 139 70 161 72 4 1 9 -9 13 -21z m194 -121 c97 -50 98 -51 59 -94 -15 -16
-32 -23 -59 -23 -57 0 -85 34 -107 132 -11 47 -15 48 107 -15z m472 28 c0 -34
-26 -94 -52 -122 -32 -34 -86 -31 -123 7 -16 16 -25 33 -21 37 9 9 177 100
189 102 4 0 7 -10 7 -24z"/>
</g>
</svg>
